const cueSet2 = [
    {
          "duration": 0.28301850000000073,
          "durationTicks": 7680,
          "midi": 45,
          "name": "A2",
          "ticks": 737280,
          "time": 27.169776,
          "velocity": 0.7874015748031497
        },
        {
          "duration": 0.28301850000000073,
          "durationTicks": 7680,
          "midi": 48,
          "name": "C3",
          "ticks": 744960,
          "time": 27.4527945,
          "velocity": 0.7874015748031497
        },
        {
          "duration": 0.28301850000000073,
          "durationTicks": 7680,
          "midi": 50,
          "name": "D3",
          "ticks": 752640,
          "time": 27.735813,
          "velocity": 0.7874015748031497
        },
        {
          "duration": 0.28301850000000073,
          "durationTicks": 7680,
          "midi": 52,
          "name": "E3",
          "ticks": 760320,
          "time": 28.0188315,
          "velocity": 0.7874015748031497
        },
        {
          "duration": 0.2830184999999972,
          "durationTicks": 7680,
          "midi": 50,
          "name": "D3",
          "ticks": 768000,
          "time": 28.30185,
          "velocity": 0.7874015748031497
        },
        {
          "duration": 0.28301850000000073,
          "durationTicks": 7680,
          "midi": 52,
          "name": "E3",
          "ticks": 775680,
          "time": 28.5848685,
          "velocity": 0.7874015748031497
        },
        {
          "duration": 0.28301850000000073,
          "durationTicks": 7680,
          "midi": 53,
          "name": "F3",
          "ticks": 783360,
          "time": 28.867887,
          "velocity": 0.7874015748031497
        },
        {
          "duration": 0.28301850000000073,
          "durationTicks": 7680,
          "midi": 55,
          "name": "G3",
          "ticks": 791040,
          "time": 29.1509055,
          "velocity": 0.7874015748031497
        },
        {
          "duration": 0.28301850000000073,
          "durationTicks": 7680,
          "midi": 53,
          "name": "F3",
          "ticks": 798720,
          "time": 29.433924,
          "velocity": 0.7874015748031497
        },
        {
          "duration": 0.2830184999999972,
          "durationTicks": 7680,
          "midi": 55,
          "name": "G3",
          "ticks": 806400,
          "time": 29.716942500000002,
          "velocity": 0.7874015748031497
        },
        {
          "duration": 0.28301850000000073,
          "durationTicks": 7680,
          "midi": 59,
          "name": "B3",
          "ticks": 814080,
          "time": 29.999961,
          "velocity": 0.7874015748031497
        },
        {
          "duration": 0.28301850000000073,
          "durationTicks": 7680,
          "midi": 60,
          "name": "C4",
          "ticks": 821760,
          "time": 30.2829795,
          "velocity": 0.7874015748031497
        },
        {
          "duration": 0.28301850000000073,
          "durationTicks": 7680,
          "midi": 59,
          "name": "B3",
          "ticks": 829440,
          "time": 30.565998,
          "velocity": 0.7874015748031497
        },
        {
          "duration": 0.28301850000000073,
          "durationTicks": 7680,
          "midi": 57,
          "name": "A3",
          "ticks": 837120,
          "time": 30.8490165,
          "velocity": 0.7874015748031497
        },
        {
          "duration": 0.2830184999999972,
          "durationTicks": 7680,
          "midi": 55,
          "name": "G3",
          "ticks": 844800,
          "time": 31.132035000000002,
          "velocity": 0.7874015748031497
        },
        {
          "duration": 0.28301850000000073,
          "durationTicks": 7680,
          "midi": 52,
          "name": "E3",
          "ticks": 852480,
          "time": 31.4150535,
          "velocity": 0.7874015748031497
        },
        {
          "duration": 0.28301850000000073,
          "durationTicks": 7680,
          "midi": 50,
          "name": "D3",
          "ticks": 860160,
          "time": 31.698072,
          "velocity": 0.7874015748031497
        },
        {
          "duration": 0.2830184999999972,
          "durationTicks": 7680,
          "midi": 53,
          "name": "F3",
          "ticks": 867840,
          "time": 31.9810905,
          "velocity": 0.7874015748031497
        },
        {
          "duration": 0.2830185000000043,
          "durationTicks": 7680,
          "midi": 55,
          "name": "G3",
          "ticks": 875520,
          "time": 32.264109,
          "velocity": 0.7874015748031497
        },
        {
          "duration": 0.2830184999999972,
          "durationTicks": 7680,
          "midi": 53,
          "name": "F3",
          "ticks": 883200,
          "time": 32.5471275,
          "velocity": 0.7874015748031497
        },
        {
          "duration": 0.2830185000000043,
          "durationTicks": 7680,
          "midi": 52,
          "name": "E3",
          "ticks": 890880,
          "time": 32.830146,
          "velocity": 0.7874015748031497
        },
        {
          "duration": 0.2830184999999972,
          "durationTicks": 7680,
          "midi": 53,
          "name": "F3",
          "ticks": 898560,
          "time": 33.1131645,
          "velocity": 0.7874015748031497
        },
        {
          "duration": 0.2830184999999972,
          "durationTicks": 7680,
          "midi": 55,
          "name": "G3",
          "ticks": 906240,
          "time": 33.396183,
          "velocity": 0.7874015748031497
        },
        {
          "duration": 0.2830185000000043,
          "durationTicks": 7680,
          "midi": 57,
          "name": "A3",
          "ticks": 913920,
          "time": 33.6792015,
          "velocity": 0.7874015748031497
        },
        {
          "duration": 0.2830184999999972,
          "durationTicks": 7680,
          "midi": 52,
          "name": "E3",
          "ticks": 921600,
          "time": 33.96222,
          "velocity": 0.7874015748031497
        },
        {
          "duration": 0.2830185000000043,
          "durationTicks": 7680,
          "midi": 55,
          "name": "G3",
          "ticks": 929280,
          "time": 34.2452385,
          "velocity": 0.7874015748031497
        },
        {
          "duration": 0.2830184999999972,
          "durationTicks": 7680,
          "midi": 57,
          "name": "A3",
          "ticks": 936960,
          "time": 34.528257,
          "velocity": 0.7874015748031497
        },
        {
          "duration": 0.2830184999999972,
          "durationTicks": 7680,
          "midi": 55,
          "name": "G3",
          "ticks": 944640,
          "time": 34.8112755,
          "velocity": 0.7874015748031497
        },
        {
          "duration": 1.132074000000003,
          "durationTicks": 30720,
          "midi": 52,
          "name": "E3",
          "ticks": 952320,
          "time": 35.094294,
          "velocity": 0.7874015748031497
        },
        {
          "duration": 0.2830184999999972,
          "durationTicks": 7680,
          "midi": 45,
          "name": "A2",
          "ticks": 983040,
          "time": 36.226368,
          "velocity": 0.7874015748031497
        },
        {
          "duration": 0.2830185000000043,
          "durationTicks": 7680,
          "midi": 48,
          "name": "C3",
          "ticks": 990720,
          "time": 36.5093865,
          "velocity": 0.7874015748031497
        },
        {
          "duration": 0.2830184999999972,
          "durationTicks": 7680,
          "midi": 50,
          "name": "D3",
          "ticks": 998400,
          "time": 36.792405,
          "velocity": 0.7874015748031497
        },
        {
          "duration": 0.2830185000000043,
          "durationTicks": 7680,
          "midi": 52,
          "name": "E3",
          "ticks": 1006080,
          "time": 37.0754235,
          "velocity": 0.7874015748031497
        },
        {
          "duration": 0.2830184999999972,
          "durationTicks": 7680,
          "midi": 50,
          "name": "D3",
          "ticks": 1013760,
          "time": 37.358442000000004,
          "velocity": 0.7874015748031497
        },
        {
          "duration": 0.2830184999999972,
          "durationTicks": 7680,
          "midi": 52,
          "name": "E3",
          "ticks": 1021440,
          "time": 37.6414605,
          "velocity": 0.7874015748031497
        },
        {
          "duration": 0.2830185000000043,
          "durationTicks": 7680,
          "midi": 53,
          "name": "F3",
          "ticks": 1029120,
          "time": 37.924479,
          "velocity": 0.7874015748031497
        },
        {
          "duration": 0.2830184999999972,
          "durationTicks": 7680,
          "midi": 55,
          "name": "G3",
          "ticks": 1036800,
          "time": 38.2074975,
          "velocity": 0.7874015748031497
        },
        {
          "duration": 0.2830185000000043,
          "durationTicks": 7680,
          "midi": 53,
          "name": "F3",
          "ticks": 1044480,
          "time": 38.490516,
          "velocity": 0.7874015748031497
        },
        {
          "duration": 0.2830184999999972,
          "durationTicks": 7680,
          "midi": 55,
          "name": "G3",
          "ticks": 1052160,
          "time": 38.773534500000004,
          "velocity": 0.7874015748031497
        },
        {
          "duration": 0.2830184999999972,
          "durationTicks": 7680,
          "midi": 59,
          "name": "B3",
          "ticks": 1059840,
          "time": 39.056553,
          "velocity": 0.7874015748031497
        },
        {
          "duration": 0.2830185000000043,
          "durationTicks": 7680,
          "midi": 60,
          "name": "C4",
          "ticks": 1067520,
          "time": 39.3395715,
          "velocity": 0.7874015748031497
        },
        {
          "duration": 0.2830184999999972,
          "durationTicks": 7680,
          "midi": 59,
          "name": "B3",
          "ticks": 1075200,
          "time": 39.62259,
          "velocity": 0.7874015748031497
        },
        {
          "duration": 0.2830185000000043,
          "durationTicks": 7680,
          "midi": 57,
          "name": "A3",
          "ticks": 1082880,
          "time": 39.9056085,
          "velocity": 0.7874015748031497
        },
        {
          "duration": 0.2830184999999972,
          "durationTicks": 7680,
          "midi": 55,
          "name": "G3",
          "ticks": 1090560,
          "time": 40.188627000000004,
          "velocity": 0.7874015748031497
        },
        {
          "duration": 0.2830184999999972,
          "durationTicks": 7680,
          "midi": 52,
          "name": "E3",
          "ticks": 1098240,
          "time": 40.4716455,
          "velocity": 0.7874015748031497
        },
        {
          "duration": 0.2830185000000043,
          "durationTicks": 7680,
          "midi": 50,
          "name": "D3",
          "ticks": 1105920,
          "time": 40.754664,
          "velocity": 0.7874015748031497
        },
        {
          "duration": 0.2830184999999972,
          "durationTicks": 7680,
          "midi": 53,
          "name": "F3",
          "ticks": 1113600,
          "time": 41.0376825,
          "velocity": 0.7874015748031497
        },
        {
          "duration": 0.2830185000000043,
          "durationTicks": 7680,
          "midi": 55,
          "name": "G3",
          "ticks": 1121280,
          "time": 41.320701,
          "velocity": 0.7874015748031497
        },
        {
          "duration": 0.2830184999999972,
          "durationTicks": 7680,
          "midi": 53,
          "name": "F3",
          "ticks": 1128960,
          "time": 41.603719500000004,
          "velocity": 0.7874015748031497
        },
        {
          "duration": 0.2830184999999972,
          "durationTicks": 7680,
          "midi": 52,
          "name": "E3",
          "ticks": 1136640,
          "time": 41.886738,
          "velocity": 0.7874015748031497
        },
        {
          "duration": 0.2830185000000043,
          "durationTicks": 7680,
          "midi": 53,
          "name": "F3",
          "ticks": 1144320,
          "time": 42.1697565,
          "velocity": 0.7874015748031497
        },
        {
          "duration": 0.2830184999999972,
          "durationTicks": 7680,
          "midi": 55,
          "name": "G3",
          "ticks": 1152000,
          "time": 42.452775,
          "velocity": 0.7874015748031497
        },
        {
          "duration": 0.2830185000000043,
          "durationTicks": 7680,
          "midi": 57,
          "name": "A3",
          "ticks": 1159680,
          "time": 42.7357935,
          "velocity": 0.7874015748031497
        },
        {
          "duration": 0.2830184999999972,
          "durationTicks": 7680,
          "midi": 52,
          "name": "E3",
          "ticks": 1167360,
          "time": 43.018812000000004,
          "velocity": 0.7874015748031497
        },
        {
          "duration": 0.2830184999999972,
          "durationTicks": 7680,
          "midi": 55,
          "name": "G3",
          "ticks": 1175040,
          "time": 43.3018305,
          "velocity": 0.7874015748031497
        },
        {
          "duration": 0.2830185000000043,
          "durationTicks": 7680,
          "midi": 57,
          "name": "A3",
          "ticks": 1182720,
          "time": 43.584849,
          "velocity": 0.7874015748031497
        },
        {
          "duration": 0.2830184999999972,
          "durationTicks": 7680,
          "midi": 55,
          "name": "G3",
          "ticks": 1190400,
          "time": 43.8678675,
          "velocity": 0.7874015748031497
        },
        {
          "duration": 1.132074000000003,
          "durationTicks": 30720,
          "midi": 52,
          "name": "E3",
          "ticks": 1198080,
          "time": 44.150886,
          "velocity": 0.7874015748031497
        },
        {
          "duration": 0.2830184999999972,
          "durationTicks": 7680,
          "midi": 45,
          "name": "A2",
          "ticks": 1228800,
          "time": 45.28296,
          "velocity": 0.7874015748031497
        },
        {
          "duration": 0.2830185000000043,
          "durationTicks": 7680,
          "midi": 48,
          "name": "C3",
          "ticks": 1236480,
          "time": 45.5659785,
          "velocity": 0.7874015748031497
        },
        {
          "duration": 0.2830184999999972,
          "durationTicks": 7680,
          "midi": 50,
          "name": "D3",
          "ticks": 1244160,
          "time": 45.848997000000004,
          "velocity": 0.7874015748031497
        },
        {
          "duration": 0.2830184999999972,
          "durationTicks": 7680,
          "midi": 52,
          "name": "E3",
          "ticks": 1251840,
          "time": 46.1320155,
          "velocity": 0.7874015748031497
        },
        {
          "duration": 0.2830185000000043,
          "durationTicks": 7680,
          "midi": 50,
          "name": "D3",
          "ticks": 1259520,
          "time": 46.415034,
          "velocity": 0.7874015748031497
        },
        {
          "duration": 0.2830184999999972,
          "durationTicks": 7680,
          "midi": 52,
          "name": "E3",
          "ticks": 1267200,
          "time": 46.6980525,
          "velocity": 0.7874015748031497
        },
        {
          "duration": 0.2830185000000043,
          "durationTicks": 7680,
          "midi": 53,
          "name": "F3",
          "ticks": 1274880,
          "time": 46.981071,
          "velocity": 0.7874015748031497
        },
        {
          "duration": 0.2830184999999972,
          "durationTicks": 7680,
          "midi": 55,
          "name": "G3",
          "ticks": 1282560,
          "time": 47.264089500000004,
          "velocity": 0.7874015748031497
        },
        {
          "duration": 0.2830184999999972,
          "durationTicks": 7680,
          "midi": 53,
          "name": "F3",
          "ticks": 1290240,
          "time": 47.547108,
          "velocity": 0.7874015748031497
        },
        {
          "duration": 0.2830185000000043,
          "durationTicks": 7680,
          "midi": 55,
          "name": "G3",
          "ticks": 1297920,
          "time": 47.8301265,
          "velocity": 0.7874015748031497
        },
        {
          "duration": 0.2830184999999972,
          "durationTicks": 7680,
          "midi": 59,
          "name": "B3",
          "ticks": 1305600,
          "time": 48.113145,
          "velocity": 0.7874015748031497
        },
        {
          "duration": 0.2830185000000043,
          "durationTicks": 7680,
          "midi": 60,
          "name": "C4",
          "ticks": 1313280,
          "time": 48.3961635,
          "velocity": 0.7874015748031497
        },
        {
          "duration": 0.2830184999999972,
          "durationTicks": 7680,
          "midi": 59,
          "name": "B3",
          "ticks": 1320960,
          "time": 48.679182000000004,
          "velocity": 0.7874015748031497
        },
        {
          "duration": 0.2830184999999972,
          "durationTicks": 7680,
          "midi": 57,
          "name": "A3",
          "ticks": 1328640,
          "time": 48.9622005,
          "velocity": 0.7874015748031497
        },
        {
          "duration": 0.2830185000000043,
          "durationTicks": 7680,
          "midi": 55,
          "name": "G3",
          "ticks": 1336320,
          "time": 49.245219,
          "velocity": 0.7874015748031497
        },
        {
          "duration": 0.2830184999999972,
          "durationTicks": 7680,
          "midi": 52,
          "name": "E3",
          "ticks": 1344000,
          "time": 49.5282375,
          "velocity": 0.7874015748031497
        },
        {
          "duration": 0.2830185000000043,
          "durationTicks": 7680,
          "midi": 50,
          "name": "D3",
          "ticks": 1351680,
          "time": 49.811256,
          "velocity": 0.7874015748031497
        },
        {
          "duration": 0.2830184999999972,
          "durationTicks": 7680,
          "midi": 53,
          "name": "F3",
          "ticks": 1359360,
          "time": 50.094274500000004,
          "velocity": 0.7874015748031497
        },
        {
          "duration": 0.2830184999999972,
          "durationTicks": 7680,
          "midi": 55,
          "name": "G3",
          "ticks": 1367040,
          "time": 50.377293,
          "velocity": 0.7874015748031497
        },
        {
          "duration": 0.2830185000000043,
          "durationTicks": 7680,
          "midi": 53,
          "name": "F3",
          "ticks": 1374720,
          "time": 50.6603115,
          "velocity": 0.7874015748031497
        },
        {
          "duration": 0.2830184999999972,
          "durationTicks": 7680,
          "midi": 52,
          "name": "E3",
          "ticks": 1382400,
          "time": 50.94333,
          "velocity": 0.7874015748031497
        },
        {
          "duration": 0.2830185000000043,
          "durationTicks": 7680,
          "midi": 53,
          "name": "F3",
          "ticks": 1390080,
          "time": 51.2263485,
          "velocity": 0.7874015748031497
        },
        {
          "duration": 0.2830184999999972,
          "durationTicks": 7680,
          "midi": 55,
          "name": "G3",
          "ticks": 1397760,
          "time": 51.509367000000005,
          "velocity": 0.7874015748031497
        },
        {
          "duration": 0.2830184999999972,
          "durationTicks": 7680,
          "midi": 57,
          "name": "A3",
          "ticks": 1405440,
          "time": 51.7923855,
          "velocity": 0.7874015748031497
        },
        {
          "duration": 0.2830185000000043,
          "durationTicks": 7680,
          "midi": 52,
          "name": "E3",
          "ticks": 1413120,
          "time": 52.075404,
          "velocity": 0.7874015748031497
        },
        {
          "duration": 0.2830184999999972,
          "durationTicks": 7680,
          "midi": 55,
          "name": "G3",
          "ticks": 1420800,
          "time": 52.3584225,
          "velocity": 0.7874015748031497
        },
        {
          "duration": 0.2830185000000043,
          "durationTicks": 7680,
          "midi": 57,
          "name": "A3",
          "ticks": 1428480,
          "time": 52.641441,
          "velocity": 0.7874015748031497
        },
        {
          "duration": 0.2830184999999972,
          "durationTicks": 7680,
          "midi": 55,
          "name": "G3",
          "ticks": 1436160,
          "time": 52.924459500000005,
          "velocity": 0.7874015748031497
        },
        {
          "duration": 1.1320739999999958,
          "durationTicks": 30720,
          "midi": 52,
          "name": "E3",
          "ticks": 1443840,
          "time": 53.207478,
          "velocity": 0.7874015748031497
        },
        {
          "duration": 0.2830185000000043,
          "durationTicks": 7680,
          "midi": 45,
          "name": "A2",
          "ticks": 1474560,
          "time": 54.339552,
          "velocity": 0.7874015748031497
        },
        {
          "duration": 0.2830184999999972,
          "durationTicks": 7680,
          "midi": 48,
          "name": "C3",
          "ticks": 1482240,
          "time": 54.6225705,
          "velocity": 0.7874015748031497
        },
        {
          "duration": 0.2830185000000043,
          "durationTicks": 7680,
          "midi": 50,
          "name": "D3",
          "ticks": 1489920,
          "time": 54.905589,
          "velocity": 0.7874015748031497
        },
        {
          "duration": 0.2830184999999972,
          "durationTicks": 7680,
          "midi": 52,
          "name": "E3",
          "ticks": 1497600,
          "time": 55.1886075,
          "velocity": 0.7874015748031497
        },
        {
          "duration": 0.2830184999999972,
          "durationTicks": 7680,
          "midi": 50,
          "name": "D3",
          "ticks": 1505280,
          "time": 55.471626,
          "velocity": 0.7874015748031497
        },
        {
          "duration": 0.2830185000000043,
          "durationTicks": 7680,
          "midi": 52,
          "name": "E3",
          "ticks": 1512960,
          "time": 55.7546445,
          "velocity": 0.7874015748031497
        },
        {
          "duration": 0.2830184999999972,
          "durationTicks": 7680,
          "midi": 53,
          "name": "F3",
          "ticks": 1520640,
          "time": 56.037663,
          "velocity": 0.7874015748031497
        },
        {
          "duration": 0.2830185000000043,
          "durationTicks": 7680,
          "midi": 55,
          "name": "G3",
          "ticks": 1528320,
          "time": 56.3206815,
          "velocity": 0.7874015748031497
        },
        {
          "duration": 0.2830184999999972,
          "durationTicks": 7680,
          "midi": 53,
          "name": "F3",
          "ticks": 1536000,
          "time": 56.6037,
          "velocity": 0.7874015748031497
        },
        {
          "duration": 0.2830184999999972,
          "durationTicks": 7680,
          "midi": 55,
          "name": "G3",
          "ticks": 1543680,
          "time": 56.8867185,
          "velocity": 0.7874015748031497
        },
        {
          "duration": 0.2830185000000043,
          "durationTicks": 7680,
          "midi": 59,
          "name": "B3",
          "ticks": 1551360,
          "time": 57.169737,
          "velocity": 0.7874015748031497
        },
        {
          "duration": 0.2830184999999972,
          "durationTicks": 7680,
          "midi": 60,
          "name": "C4",
          "ticks": 1559040,
          "time": 57.4527555,
          "velocity": 0.7874015748031497
        },
        {
          "duration": 0.2830185000000043,
          "durationTicks": 7680,
          "midi": 59,
          "name": "B3",
          "ticks": 1566720,
          "time": 57.735774,
          "velocity": 0.7874015748031497
        },
        {
          "duration": 0.2830184999999972,
          "durationTicks": 7680,
          "midi": 57,
          "name": "A3",
          "ticks": 1574400,
          "time": 58.0187925,
          "velocity": 0.7874015748031497
        },
        {
          "duration": 0.2830184999999972,
          "durationTicks": 7680,
          "midi": 55,
          "name": "G3",
          "ticks": 1582080,
          "time": 58.301811,
          "velocity": 0.7874015748031497
        },
        {
          "duration": 0.2830185000000043,
          "durationTicks": 7680,
          "midi": 52,
          "name": "E3",
          "ticks": 1589760,
          "time": 58.5848295,
          "velocity": 0.7874015748031497
        }
];

export default cueSet2;
